<?xml version="1.0" encoding="utf-8"?>
<!-- Generator: Adobe Illustrator 23.0.1, SVG Export Plug-In . SVG Version: 6.00 Build 0)  -->
<svg version="1.1" id="Layer_1" xmlns="http://www.w3.org/2000/svg" xmlns:xlink="http://www.w3.org/1999/xlink" x="0px" y="0px"
	 viewBox="0 0 48.45 56.93" style="enable-background:new 0 0 48.45 56.93;" xml:space="preserve">
<style type="text/css">
	.st0{fill:#FFFFFF;}
	.st1{fill:#F8D5BC;}
</style>
<g>
	<path d="M36.21,50.9c-11.67,0-23.33,0-35,0c0-14.88,0-29.75,0-44.59c2.46-0.32,4.06-0.52,6-0.78c0-2.05,0-3.84,0-5.64
		c11.67,0,23.33,0,35,0c0,14.93,0,29.85,0,45.1C37.29,44.22,35.76,46.65,36.21,50.9z M4.61,8.9c0,13.31,0,26,0,38.58
		c9.99,0,19.54,0,28.97,0c0-13.11,0-25.8,0-38.58C23.69,8.9,14.26,8.9,4.61,8.9z M37.01,42.23c0.93,0.04,1.87,0.09,2.8,0.13
		c0.01-13.05,0.05-26.09-0.02-38.79c-10.39,0-19.92,0-29.46,0c-0.01,0.61-0.02,1.23-0.03,1.84c8.71,0,17.42,0,26.71,0
		C37.01,18.4,37.01,30.31,37.01,42.23z"/>
	<path class="st0" d="M36.25,50.9c-0.45-4.25,1.08-6.68,6-5.9c0-15.25,0-30.17,0-45.1c2,0,4,0,6,0c0,17,0,34,0,51
		C44.25,50.9,40.25,50.9,36.25,50.9z"/>
	<path class="st0" d="M7.21-0.1c0,1.8,0,3.59,0,5.64C5.27,5.79,3.68,6,1.21,6.31c0,14.83,0,29.71,0,44.59c-1.32,0-2.65,0-3.97,0
		c0-17,0-34,0-51C0.6-0.1,3.91-0.1,7.21-0.1z"/>
	<path class="st0" d="M4.61,8.9c9.65,0,19.08,0,28.97,0c0,12.78,0,25.47,0,38.58c-9.43,0-18.98,0-28.97,0
		C4.61,34.89,4.61,22.2,4.61,8.9z"/>
	<path class="st1" d="M37.01,42.23c0-11.91,0-23.83,0-36.82c-9.29,0-18,0-26.71,0c0.01-0.61,0.02-1.23,0.03-1.84
		c9.53,0,19.06,0,29.46,0c0.07,12.7,0.03,25.75,0.02,38.79C38.88,42.31,37.95,42.27,37.01,42.23z"/>
</g>
</svg>
